# AST/ASF file generated using VICON BodyLanguage
# -----------------------------------------------
:version 1.10
:name VICON
:units
  mass 1.0
  length 0.45
  angle deg
:documentation
   .ast/.asf automatically generated from VICON data using
   VICON BodyBuilder and BodyLanguage model FoxedUp or BRILLIANT.MOD
:root
   order TX TY TZ RX RY RZ
   axis XYZ
   position 0 0 0  
   orientation 0 0 0 
:bonedata
  begin
     id 1 
     name lhipjoint
     direction 0.643824 -0.71708 0.266994 
     length 2.52133 
     axis 0 0 0  XYZ
  end
  begin
     id 2 
     name lfemur
     direction 0.34202 -0.939693 0  
     length 7.51824  
     axis 0 0 20  XYZ
    dof rx ry rz
    limits (-160.0 20.0)
           (-70.0 70.0)
           (-60.0 70.0)
  end
  begin
     id 3 
     name ltibia
     direction 0.34202 -0.939693 0   
     length 7.3685   
     axis 0 0 20   XYZ
    dof rx
    limits (-10.0 170.0)
  end
  begin
     id 4 
     name lfoot
     direction 0.105419 -0.289636 0.951314   
     length 2.20972   
     axis -90 7.62852e-016 20   XYZ
    dof rx rz
    limits (-45.0 90.0)
           (-70.0 20.0)
  end
  begin
     id 5 
     name ltoes
     direction 1.53549e-011 -4.21833e-011 1   
     length 1.10139   
     axis -90 7.62852e-016 20   XYZ
    dof rx
    limits (-90.0 20.0)
  end
  begin
     id 6 
     name rhipjoint
     direction -0.608823 -0.743445 0.276811   
     length 2.43192  
     axis 0 0 0  XYZ 
  end
  begin
     id 7 
     name rfemur
     direction -0.34202 -0.939693 0   
     length 7.69715   
     axis 0 0 -20   XYZ
    dof rx ry rz
    limits (-160.0 20.0)
           (-70.0 70.0)
           (-70.0 60.0)
  end
  begin
     id 8 
     name rtibia
     direction -0.34202 -0.939693 0   
     length 7.44924   
     axis 0 0 -20   XYZ
    dof rx
    limits (-10.0 170.0)
 end
 begin
     id 9 
     name rfoot
     direction -0.103614 -0.284677 0.953007   
     length 2.22623  
     axis -90 -7.62852e-016 -20   XYZ
    dof rx rz
    limits (-45.0 90.0)
           (-20.0 70.0)
  end
  begin
     id 10 
     name rtoes
     direction -1.53537e-011 -4.22026e-011 1   
     length 1.11   
     axis -90 -7.62852e-016 -20   XYZ
    dof rx
    limits (-90.0 20.0)
  end
  begin
     id 11 
     name lowerback
     direction -0.0101212 0.99662 -0.0815298   
     length 2.08277   
     axis 0 0 0   XYZ
    dof rx ry rz
    limits (-20.0 45.0)
           (-30.0 30.0)
           (-30.0 30.0)
  end
  begin
     id 12 
     name upperback
     direction 0.024314 0.999591 -0.0150645   
     length 2.08524   
     axis 0 0 0   XYZ
    dof rx ry rz
    limits (-20.0 45.0)
           (-30.0 30.0)
           (-30.0 30.0)
  end
  begin
     id 13 
     name thorax
     direction 0.0285959 0.999323 0.0231357   
     length 2.09645   
     axis 0 0 0   XYZ
    dof rx ry rz
    limits (-20.0 45.0)
           (-30.0 30.0)
           (-30.0 30.0)
  end
  begin
     id 14 
     name lowerneck
     direction -0.065512 0.979301 0.191515   
     length 1.63798   
     axis 0 0 0   XYZ
    dof rx ry rz
    limits (-20.0 45.0)
           (-30.0 30.0)
           (-30.0 30.0)
  end
  begin
     id 15 
     name upperneck
     direction 0.0498479 0.98191 -0.182667   
     length 1.68731   
     axis 0 0 0   XYZ
    dof rx ry rz
    limits (-20.0 45.0)
           (-30.0 30.0)
           (-30.0 30.0)
  end
  begin
     id 16
     name head
     direction 0.0230358 0.996257 -0.0833175  
     length 1.69785  
     axis 0 0 0   XYZ
    dof rx ry rz
    limits (-20.0 45.0)
           (-30.0 30.0)
           (-30.0 30.0)
  end
  begin
     id 17 
     name lclavicle
     direction 0.967963 0.201165 -0.150269  
     length 3.63976  
     axis 0 0 0   XYZ
    dof ry rz
    limits (-20.0 10.0)
           (0.0 20.0)
  end
  begin
     id 18 
     name lhumerus
     direction 1 -4.48954e-011 -2.92837e-028   
     length 5.32462   
     axis 180 -30 -90   XYZ
    dof rx ry rz
    limits (-60.0 90.0)
           (-90.0 90.0)
           (-90.0 90.0)
  end
  begin
     id 19
     name lradius
     direction 1 -4.48958e-011 -6.39511e-027   
     length 3.48402   
     axis 180 -30 -90   XYZ
    dof rx
    limits (-10.0 170.0)
  end
  begin
     id 20
     name lwrist
     direction 1 -4.48975e-011 -1.1413e-026   
     length 1.74201   
     axis 6.88575e-015 90 90   XYZ
    dof ry
    limits (-180.0 0.0)
 end
  begin
     id 21 
     name lhand
     direction 1 -4.48899e-011 -2.28192e-026   
     length 0.572476   
     axis 1.45643e-014 90 90   XYZ
    dof rx rz
    limits (-90.0 90.0)
           (-45.0 45.0)
  end
  begin
     id 22 
     name lfingers
     direction 1 -4.49155e-011 -4.5684e-026   
     length 0.461545   
     axis 2.91283e-014 90 90   XYZ
    dof rx
    limits (0.0 90.0)
  end
  begin
     id 23
     name lthumb
     direction 0.707107 -6.34943e-011 0.707107   
     length 0.662688   
     axis -90 45 -2.25915e-014   XYZ
    dof rx rz
    limits (-45.0 45.0)
           (-45.0 45.0)
  end
  begin
     id 24 
     name rclavicle
     direction -0.964103 0.264019 -0.0282629   
     length 3.54491  
     axis 0 0 0   XYZ 
    dof ry rz
    limits (-10.0 20.0)
           (-20.0 0.0)
  end
  begin
     id 25 
     name rhumerus
     direction -1 -4.48964e-011 -2.45032e-027  
     length 5.33589   
     axis 180 30 90   XYZ
    dof rx ry rz
    limits (-90.0 60.0)
           (-90.0 90.0)
           (-90.0 90.0)
  end
  begin
     id 26 
     name rradius
     direction -1 -4.48987e-011 -1.55093e-027   
     length 3.64134   
     axis 180 30 90   XYZ
    dof rx
    limits (-10.0 170.0)
  end
  begin
     id 27 
     name rwrist
     direction -1 -4.4897e-011 -1.14128e-026   
     length 1.82067   
     axis 6.88575e-015 -90 -90   XYZ
    dof ry
    limits (-180.0 0.0)
  end
  begin
     id 28
     name rhand
     direction -1 -4.49021e-011 -2.28301e-026   
     length 0.734811   
     axis 1.45643e-014 -90 -90   XYZ
    dof rx rz
    limits (-90.0 90.0)
           (-45.0 45.0)
  end
  begin
     id 29
     name rfingers
     direction -1 -4.48862e-011 -4.56319e-026   
     length 0.592424   
     axis 2.91283e-014 -90 -90   XYZ
    dof rx
    limits (0.0 90.0)
  end
  begin
     id 30
     name rthumb
     direction -0.707107 -6.34978e-011 0.707107   
     length 0.850605   
     axis -90 -45 2.25915e-014   XYZ
    dof rx rz
    limits (-45.0 45.0)
           (-45.0 45.0)
  end
:hierarchy
  begin
    root lhipjoint rhipjoint lowerback
    lhipjoint lfemur
    lfemur ltibia
    ltibia lfoot
    lfoot ltoes
    rhipjoint rfemur
    rfemur rtibia
    rtibia rfoot
    rfoot rtoes
    lowerback upperback
    upperback thorax
    thorax lowerneck lclavicle rclavicle
    lowerneck upperneck
    upperneck head
    lclavicle lhumerus
    lhumerus lradius
    lradius lwrist
    lwrist lhand lthumb
    lhand lfingers
    rclavicle rhumerus
    rhumerus rradius
    rradius rwrist
    rwrist rhand rthumb
    rhand rfingers
  end

#!OML:ASF F:\VICON\USERDATA\INSTALL\rory3\rory3.ASF
:FULLY-SPECIFIED
:DEGREES
83
root 0.871671 17.5338 1.89345 5.78497 -78.4157 -1.46032
lowerback 0.354768 0.827912 -7.13817
upperback -0.34694 1.01756 -1.70642
thorax -0.652683 0.521796 2.22941
lowerneck -21.3324 -8.30458 -15.4538
upperneck -21.6344 -8.32485 11.8964
head -2.20788 -3.79438 5.94914
rclavicle 4.21423e-014 2.14687e-014
rhumerus -26.0573 1.30697 -73.4111
rradius 45.957
rwrist 10.1082
rhand -23.1803 5.39356
rfingers 7.12502
rthumb 3.26901 -24.5611
lclavicle 4.21423e-014 2.14687e-014
lhumerus -32.0918 5.07131 80.0182
lradius 25.9174
lwrist -8.79279
lhand -8.75832 26.3572
lfingers 7.12502
lthumb 17.1791 55.6178
rfemur -16.8477 3.64648 15.8713
rtibia 38.6908
rfoot -21.7522 1.09021
rtoes 9.19224
lfemur -13.7916 -0.225762 -23.7616
ltibia 33.0585
lfoot -19.9335 5.60372
ltoes -4.79057
84
root 0.863796 17.5395 1.89286 6.43012 -78.4732 -2.05324
lowerback 0.279353 0.786667 -7.21628
upperback -0.367694 0.967626 -1.70659
thorax -0.628608 0.496761 2.27421
lowerneck -21.557 -8.18897 -15.1172
upperneck -21.7011 -8.21956 11.8751
head -2.22411 -3.76449 5.894
rclavicle 5.07895e-014 3.4191e-014
rhumerus -25.8994 1.68713 -72.8365
rradius 46.9418
rwrist 10.5925
rhand -23.727 5.29628
rfingers 7.12502
rthumb 2.74105 -24.6659
lclavicle 5.07895e-014 3.4191e-014
lhumerus -31.9601 4.89645 79.9604
lradius 26.0914
lwrist -8.45432
lhand -8.90731 26.4863
lfingers 7.12502
lthumb 17.0357 55.7593
rfemur -16.9438 3.77063 15.9298
rtibia 38.7709
rfoot -21.6753 1.50957
rtoes 11.5035
lfemur -13.8176 -0.198156 -23.6441
ltibia 33.0333
lfoot -19.8985 5.78983
ltoes -5.16212
85
root 0.851684 17.5442 1.89201 6.69186 -78.6916 -2.14099
lowerback 0.0156477 0.790787 -7.4602
upperback -0.431612 0.992286 -1.69906
thorax -0.553488 0.508674 2.42054
lowerneck -21.7477 -8.07968 -14.87
upperneck -21.7343 -8.11098 11.8262
head -2.2343 -3.72601 5.84419
rclavicle -3.57812e-014 9.54166e-015
rhumerus -25.772 2.15584 -72.1204
rradius 48.0742
rwrist 10.8942
rhand -24.1166 5.08434
rfingers 7.12502
rthumb 2.36473 -24.8823
lclavicle -3.57812e-014 9.54166e-015
lhumerus -31.9424 4.62163 80.0154
lradius 26.317
lwrist -8.49102
lhand -9.30898 26.473
lfingers 7.12502
lthumb 16.649 55.7789
rfemur -17.1729 3.87299 15.8852
rtibia 38.8381
rfoot -21.5838 1.74885
rtoes 12.2923
lfemur -13.9547 -0.00523203 -23.6541
ltibia 33.0284
lfoot -19.941 5.86826
ltoes -5.69775
86
root 0.838866 17.5416 1.89168 6.92545 -78.715 -2.39718
lowerback -0.0635731 0.843069 -7.65437
upperback -0.436551 1.06981 -1.61718
thorax -0.527004 0.547891 2.61337
lowerneck -21.8422 -8.16957 -15.0307
upperneck -21.7217 -8.16576 12.0003
head -2.19486 -3.7417 5.91837
rclavicle -2.78299e-015 3.97569e-015
rhumerus -25.6875 2.0969 -71.078
rradius 49.2166
rwrist 11.3766
rhand -24.4446 5.13799
rfingers 7.12502
rthumb 2.04798 -24.8319
lclavicle -2.78299e-015 3.97569e-015
lhumerus -31.8676 4.11923 80.3385
lradius 26.4962
lwrist -8.54452
lhand -9.91995 26.7607
lfingers 7.12502
lthumb 16.0607 56.1151
rfemur -17.1527 3.78272 15.9362
rtibia 38.8932
rfoot -21.6809 1.89951
rtoes 12.8052
lfemur -13.8863 0.0997314 -23.5888
ltibia 33.0496
lfoot -20.0251 5.76628
ltoes -5.83215
87
root 0.828582 17.5382 1.89504 7.15525 -78.4895 -2.75877
lowerback 0.0196403 0.795707 -7.76868
upperback -0.402378 1.00232 -1.51578
thorax -0.535411 0.515093 2.78127
lowerneck -21.9398 -8.18379 -15.0207
upperneck -21.7744 -8.16491 12.1154
head -2.19075 -3.74262 5.95355
rclavicle -3.40916e-014 4.05521e-014
rhumerus -25.5074 1.9927 -69.9786
rradius 50.3737
rwrist 11.6463
rhand -24.8403 5.04985
rfingers 7.12502
rthumb 1.6658 -24.9234
lclavicle -3.40916e-014 4.05521e-014
lhumerus -31.7257 3.78383 80.5789
lradius 26.6311
lwrist -8.27051
lhand -10.1767 26.7324
lfingers 7.12502
lthumb 15.8135 56.1066
rfemur -16.9756 3.56487 16.0385
rtibia 38.9612
rfoot -21.7823 2.09898
rtoes 13.5864
lfemur -13.7458 0.146727 -23.4681
ltibia 33.0866
lfoot -20.1029 5.48538
ltoes -5.40135
88
root 0.817935 17.5376 1.89721 7.49503 -78.3864 -3.1011
lowerback -0.00738099 0.740462 -7.96177
upperback -0.431753 0.9325 -1.33798
thorax -0.549531 0.483847 3.07316
lowerneck -21.8159 -8.17075 -15.1669
upperneck -22.0377 -8.13158 12.256
head -2.27745 -3.72262 6.04053
rclavicle -5.76476e-015 2.62396e-014
rhumerus -25.2684 2.06689 -68.6894
rradius 51.5745
rwrist 11.5988
rhand -25.1391 4.77005
rfingers 7.12502
rthumb 1.37719 -25.2053
lclavicle -5.76476e-015 2.62396e-014
lhumerus -31.7285 3.4984 80.8891
lradius 26.9218
lwrist -7.827
lhand -9.9793 26.5677
lfingers 7.12502
lthumb 16.0036 55.9267
rfemur -16.96 3.50125 16.1489
rtibia 39.0396
rfoot -21.7531 1.97738
rtoes 12.8614
lfemur -13.7592 0.321421 -23.3601
ltibia 33.1362
lfoot -20.1839 5.1933
ltoes -5.20292
89
root 0.807937 17.5365 1.89697 7.46322 -78.5312 -3.03206
lowerback -0.100326 0.8108 -8.22514
upperback -0.444594 1.03482 -1.25641
thorax -0.528682 0.535905 3.30448
lowerneck -21.767 -8.22779 -15.289
upperneck -22.3163 -8.1933 12.3317
head -2.35524 -3.74859 6.09354
rclavicle 7.8023e-015 3.97569e-015
rhumerus -24.9765 1.78061 -67.3687
rradius 52.7022
rwrist 11.5041
rhand -25.5444 4.41094
rfingers 7.12502
rthumb 0.98575 -25.5665
lclavicle 7.8023e-015 3.97569e-015
lhumerus -31.5917 3.24171 81.0875
lradius 27.1061
lwrist -7.84881
lhand -9.57393 26.2466
lfingers 7.12502
lthumb 16.3939 55.5738
rfemur -17.032 3.63146 16.1209
rtibia 39.1555
rfoot -21.6968 2.04407
rtoes 13.3943
lfemur -13.7566 0.488397 -23.3894
ltibia 33.1581
lfoot -20.2562 5.18157
ltoes -5.26401
